<svg width="30" height="30" viewBox="0 0 30 30" fill="none" xmlns="http://www.w3.org/2000/svg">
<path d="M24.7089 0.000475361C22.0458 0.0366491 19.9158 2.2243 19.9512 4.88652L19.9951 8.10685C20.002 8.67701 19.7832 9.22651 19.3862 9.63562L19.2268 9.79926C18.8289 10.2101 18.2829 10.4461 17.711 10.453L17.2562 10.4599C17.2571 10.4599 17.2571 10.4607 17.2571 10.4624C16.5034 9.97841 15.6034 9.70108 14.6405 9.71313C13.8154 9.72433 13.0428 9.94654 12.371 10.3281C12.222 10.3212 12.0756 10.3083 11.9249 10.31L11.8732 10.3109C11.3039 10.3186 10.7535 10.1007 10.3453 9.7028C9.9336 9.30403 9.69933 8.75884 9.69072 8.18608L9.64593 4.76163C9.60976 2.09942 7.42211 -0.031392 4.75817 0.00392048C2.09509 0.039233 -0.0357199 2.22775 0.000453846 4.89083C0.0357663 7.55391 2.22428 9.68385 4.8865 9.64854L8.10683 9.60547C8.67699 9.59772 9.22649 9.81649 9.6356 10.2144L9.8001 10.3729C10.2101 10.7725 10.4452 11.3194 10.453 11.8905L10.4598 12.3443C10.4616 12.3435 10.4633 12.3426 10.465 12.3418C10.1394 12.9955 9.95772 13.7327 9.96719 14.5139C9.98011 15.4475 10.2661 16.314 10.7432 17.0426C10.7423 17.1322 10.7329 17.2209 10.7329 17.3122L10.7337 17.363C10.7406 17.9332 10.5227 18.4827 10.1248 18.8909C9.72689 19.3035 9.18084 19.5378 8.60895 19.5455L5.18536 19.5903C2.52142 19.6248 0.391475 21.8133 0.426788 24.4772C0.4621 27.1411 2.65148 29.2702 5.31369 29.2349C7.97763 29.2005 10.1076 27.0111 10.0714 24.3471L10.0292 21.1277C10.0215 20.5584 10.2402 20.008 10.6373 19.5989L10.7957 19.4361C11.1954 19.0244 11.7406 18.7893 12.3133 18.7824L12.7664 18.7764C12.7655 18.7729 12.7629 18.7686 12.7612 18.7643C13.3727 19.0408 14.0514 19.195 14.7662 19.1846C17.382 19.1502 19.4731 17.0004 19.4387 14.3856C19.4327 13.9127 19.3551 13.4563 19.2199 13.0273C19.2639 12.6665 19.2931 12.2996 19.2888 11.9249V11.8732C19.2819 11.3039 19.4998 10.7536 19.8969 10.3453C20.2948 9.93362 20.8409 9.69935 21.4136 9.69074L24.8381 9.64595C27.5011 9.60978 29.6319 7.42213 29.5966 4.75819C29.5605 2.09511 27.3719 -0.0365597 24.7089 0.000475361Z" fill="#3FC97E"/>
</svg>
